<?xml version="1.0" standalone="no"?>
<!DOCTYPE svg PUBLIC "-//W3C//DTD SVG 20010904//EN"
 "http://www.w3.org/TR/2001/REC-SVG-20010904/DTD/svg10.dtd">
<svg version="1.0" xmlns="http://www.w3.org/2000/svg"
 width="512.000000pt" height="512.000000pt" viewBox="0 0 512.000000 512.000000"
 preserveAspectRatio="xMidYMid meet">
<metadata>
Created by potrace 1.14, written by Peter Selinger 2001-2017
</metadata>
<g transform="translate(0.000000,512.000000) scale(0.100000,-0.100000)"
fill="#000000" stroke="none">
<path d="M2305 5110 c-60 -7 -224 -35 -320 -55 -54 -11 -229 -63 -290 -86 -33
-13 -64 -24 -70 -25 -26 -5 -250 -114 -335 -162 -353 -203 -647 -480 -869
-817 -224 -338 -365 -735 -408 -1145 -15 -138 -8 -503 11 -615 3 -16 8 -43 10
-60 22 -158 102 -434 171 -590 87 -195 229 -437 332 -564 299 -368 595 -596
1024 -790 93 -41 347 -120 469 -144 122 -25 157 -31 290 -47 67 -8 478 -6 516
3 12 3 45 8 75 12 175 22 498 109 647 176 585 261 1016 668 1292 1218 80 160
174 412 195 522 3 13 7 35 10 49 3 14 7 35 10 48 2 13 6 31 9 40 6 18 13 61
21 122 27 212 27 561 1 715 -3 17 -8 44 -10 60 -3 17 -9 53 -15 80 -6 28 -13
61 -15 75 -19 96 -80 286 -133 415 -304 738 -976 1314 -1748 1500 -118 28
-180 39 -330 60 -68 10 -466 13 -540 5z"/>
</g>
</svg>
